<svg width="188" height="64" viewBox="0 0 188 64" fill="none" xmlns="http://www.w3.org/2000/svg">
<path d="M58.688 50H61.188V6.25H58.688V50ZM64.0005 50.0625H72.438C76.8547 50.0625 80.3338 48.4792 82.8755 45.3125C84.7505 43.0208 85.688 40.3125 85.688 37.1875C85.688 33.7708 84.5838 31.0625 82.3755 29.0625C82.0422 28.7292 81.6255 28.375 81.1255 28C83.7922 26 85.2297 23.2083 85.438 19.625C85.438 19.375 85.438 19.1458 85.438 18.9375C85.438 15.1875 84.1672 12.0833 81.6255 9.625C79.2088 7.375 76.063 6.25 72.188 6.25H64.0005V8.625H72.063C76.563 8.625 79.7505 10.3958 81.6255 13.9375C82.5005 15.5208 82.938 17.1875 82.938 18.9375C82.938 23.8542 80.3547 26.4583 75.188 26.75C74.813 26.7917 74.438 26.8125 74.063 26.8125H64.0005V29.1875H74.063C80.063 29.3125 83.1047 31.9792 83.188 37.1875C83.188 40.7292 81.7713 43.4583 78.938 45.375C76.6463 46.9167 73.6672 47.6875 70.0005 47.6875H64.0005V50.0625ZM90.688 41.1875V26.4375C90.7297 24.5625 91.6047 22.7292 93.313 20.9375C95.3963 18.8125 97.9172 17.75 100.875 17.75V20.125C98.3338 20.125 96.2297 21.25 94.563 23.5C93.6463 24.75 93.188 25.8958 93.188 26.9375V32.1875H111.375V26.9375C111.375 24.7708 110.313 22.9583 108.188 21.5C106.73 20.5 105.23 20 103.688 20V17.75C106.48 17.75 108.959 18.7708 111.125 20.8125C112.917 22.5208 113.834 24.375 113.875 26.375V34.5625H93.188V41.1875C93.188 42.5208 94.0005 43.9167 95.6255 45.375C97.2922 46.8333 99.063 47.5833 100.938 47.625V50C97.313 50 94.438 48.5208 92.313 45.5625C91.2297 43.9792 90.688 42.5208 90.688 41.1875ZM103.688 50V47.4375C106.48 47.4375 108.73 46.2292 110.438 43.8125C110.98 43.0625 111.334 42.3333 111.5 41.625L113.938 42.5C113.021 45.625 111.125 47.8125 108.25 49.0625C106.834 49.6875 105.313 50 103.688 50ZM118.813 50V26.4375C118.813 24.4792 119.709 22.5833 121.5 20.75C123.584 18.625 126.146 17.5625 129.188 17.5625V20.0625C126.771 20.0625 124.709 21 123 22.875C121.875 24.125 121.313 25.4167 121.313 26.75V50H118.813ZM131.813 20.0625V17.5625C135.563 17.5625 138.48 19.0833 140.563 22.125C141.646 23.6667 142.188 25.1042 142.188 26.4375V50H139.688V26.75C139.688 25.375 138.98 23.9583 137.563 22.5C135.938 20.9167 134.021 20.1042 131.813 20.0625ZM145.813 20.9375V18.5H149.75V6.25H152.25V18.5H156.188V20.9375H152.25V40.0625C152.25 43.7292 153.396 46.0417 155.688 47C156.771 47.4167 158.105 47.625 159.688 47.625H159.75L160.313 50H159.375C154.375 49.9583 151.355 48.0417 150.313 44.25C149.938 42.9583 149.75 41.375 149.75 39.5V20.9375H145.813ZM162.688 41.1875V26.5C162.688 24.5833 163.563 22.7292 165.313 20.9375C167.355 18.8125 169.896 17.75 172.938 17.75V20.125C170.021 20.125 167.792 21.375 166.25 23.875C165.542 25.0417 165.188 26.1875 165.188 27.3125V40.375C165.188 42.0417 166 43.6875 167.625 45.3125C169.209 46.8958 170.98 47.6875 172.938 47.6875V50.0625C169.105 50.0625 166.167 48.5208 164.125 45.4375C163.167 43.9375 162.688 42.5208 162.688 41.1875ZM175.5 50.0625V47.6875C178.167 47.6875 180.271 46.4583 181.813 44C182.563 42.7917 182.938 41.625 182.938 40.5V27.3125C182.938 25.4792 182.146 23.7708 180.563 22.1875C179.105 20.8125 177.417 20.125 175.5 20.125V17.75C179.209 17.75 182.042 19.2708 184 22.3125C184.959 23.7708 185.438 25.1667 185.438 26.5V41.1875C185.438 43.1458 184.584 45.0417 182.875 46.875C180.917 48.9583 178.459 50.0208 175.5 50.0625Z" fill="#2D2D2D"/>
<g filter="url(#filter0_d)">
<mask id="mask0" mask-type="alpha" maskUnits="userSpaceOnUse" x="0" y="4" width="48" height="48">
<rect y="4" width="48" height="48" rx="5" fill="#555AD3"/>
<rect y="4" width="48" height="48" rx="5" fill="url(#paint0_linear)"/>
<rect y="4" width="48" height="48" rx="5" fill="url(#paint1_radial)"/>
</mask>
<g mask="url(#mask0)">
<g filter="url(#filter1_iii)">
<rect y="4" width="48" height="48" rx="5" fill="#555AD3"/>
<rect y="4" width="48" height="48" rx="5" fill="url(#paint2_linear)"/>
<rect y="4" width="48" height="48" rx="5" fill="url(#paint3_radial)"/>
<rect y="4" width="48" height="48" rx="5" fill="url(#paint4_linear)"/>
</g>
</g>
</g>
<g filter="url(#filter2_d)">
<mask id="mask1" mask-type="alpha" maskUnits="userSpaceOnUse" x="4" y="8" width="40" height="40">
<rect x="4" y="8" width="40" height="40" rx="2" fill="#2D2D2D"/>
</mask>
<g mask="url(#mask1)">
<g filter="url(#filter3_dii)">
<rect x="4" y="8" width="40" height="40" rx="2" fill="#2D2D2D"/>
<rect x="4" y="8" width="40" height="40" rx="2" fill="white"/>
</g>
<rect opacity="0.1" x="5" y="9" width="38" height="38" rx="1" fill="url(#paint5_linear)"/>
<rect x="4" y="9" width="1" height="38" rx="0.5" fill="url(#paint6_linear)"/>
<rect x="4" y="9" width="1" height="38" rx="0.5" fill="url(#paint7_linear)"/>
<rect x="43" y="9" width="1" height="38" rx="0.5" fill="url(#paint8_linear)"/>
<rect x="43" y="9" width="1" height="38" rx="0.5" fill="url(#paint9_linear)"/>
</g>
</g>
<defs>
<filter id="filter0_d" x="0" y="4" width="48" height="49" filterUnits="userSpaceOnUse" color-interpolation-filters="sRGB">
<feFlood flood-opacity="0" result="BackgroundImageFix"/>
<feColorMatrix in="SourceAlpha" type="matrix" values="0 0 0 0 0 0 0 0 0 0 0 0 0 0 0 0 0 0 127 0"/>
<feOffset dy="1"/>
<feColorMatrix type="matrix" values="0 0 0 0 1 0 0 0 0 1 0 0 0 0 1 0 0 0 1 0"/>
<feBlend mode="normal" in2="BackgroundImageFix" result="effect1_dropShadow"/>
<feBlend mode="normal" in="SourceGraphic" in2="effect1_dropShadow" result="shape"/>
</filter>
<filter id="filter1_iii" x="0" y="3" width="48" height="49" filterUnits="userSpaceOnUse" color-interpolation-filters="sRGB">
<feFlood flood-opacity="0" result="BackgroundImageFix"/>
<feBlend mode="normal" in="SourceGraphic" in2="BackgroundImageFix" result="shape"/>
<feColorMatrix in="SourceAlpha" type="matrix" values="0 0 0 0 0 0 0 0 0 0 0 0 0 0 0 0 0 0 127 0" result="hardAlpha"/>
<feOffset dx="1" dy="1"/>
<feComposite in2="hardAlpha" operator="arithmetic" k2="-1" k3="1"/>
<feColorMatrix type="matrix" values="0 0 0 0 1 0 0 0 0 1 0 0 0 0 1 0 0 0 0.05 0"/>
<feBlend mode="normal" in2="shape" result="effect1_innerShadow"/>
<feColorMatrix in="SourceAlpha" type="matrix" values="0 0 0 0 0 0 0 0 0 0 0 0 0 0 0 0 0 0 127 0" result="hardAlpha"/>
<feOffset dx="-1" dy="-1"/>
<feComposite in2="hardAlpha" operator="arithmetic" k2="-1" k3="1"/>
<feColorMatrix type="matrix" values="0 0 0 0 1 0 0 0 0 1 0 0 0 0 1 0 0 0 0.05 0"/>
<feBlend mode="normal" in2="effect1_innerShadow" result="effect2_innerShadow"/>
<feColorMatrix in="SourceAlpha" type="matrix" values="0 0 0 0 0 0 0 0 0 0 0 0 0 0 0 0 0 0 127 0" result="hardAlpha"/>
<feOffset dy="-1"/>
<feGaussianBlur stdDeviation="0.5"/>
<feComposite in2="hardAlpha" operator="arithmetic" k2="-1" k3="1"/>
<feColorMatrix type="matrix" values="0 0 0 0 0 0 0 0 0 0 0 0 0 0 0 0 0 0 0.12 0"/>
<feBlend mode="normal" in2="effect2_innerShadow" result="effect3_innerShadow"/>
</filter>
<filter id="filter2_d" x="2" y="6" width="44" height="44" filterUnits="userSpaceOnUse" color-interpolation-filters="sRGB">
<feFlood flood-opacity="0" result="BackgroundImageFix"/>
<feColorMatrix in="SourceAlpha" type="matrix" values="0 0 0 0 0 0 0 0 0 0 0 0 0 0 0 0 0 0 127 0"/>
<feOffset/>
<feGaussianBlur stdDeviation="1"/>
<feColorMatrix type="matrix" values="0 0 0 0 0 0 0 0 0 0 0 0 0 0 0 0 0 0 0.45 0"/>
<feBlend mode="normal" in2="BackgroundImageFix" result="effect1_dropShadow"/>
<feBlend mode="normal" in="SourceGraphic" in2="effect1_dropShadow" result="shape"/>
</filter>
<filter id="filter3_dii" x="4" y="8" width="43" height="40" filterUnits="userSpaceOnUse" color-interpolation-filters="sRGB">
<feFlood flood-opacity="0" result="BackgroundImageFix"/>
<feColorMatrix in="SourceAlpha" type="matrix" values="0 0 0 0 0 0 0 0 0 0 0 0 0 0 0 0 0 0 127 0"/>
<feOffset dx="3"/>
<feColorMatrix type="matrix" values="0 0 0 0 0 0 0 0 0 0 0 0 0 0 0 0 0 0 1 0"/>
<feBlend mode="normal" in2="BackgroundImageFix" result="effect1_dropShadow"/>
<feBlend mode="normal" in="SourceGraphic" in2="effect1_dropShadow" result="shape"/>
<feColorMatrix in="SourceAlpha" type="matrix" values="0 0 0 0 0 0 0 0 0 0 0 0 0 0 0 0 0 0 127 0" result="hardAlpha"/>
<feOffset dy="1"/>
<feComposite in2="hardAlpha" operator="arithmetic" k2="-1" k3="1"/>
<feColorMatrix type="matrix" values="0 0 0 0 1 0 0 0 0 1 0 0 0 0 1 0 0 0 0.1 0"/>
<feBlend mode="normal" in2="shape" result="effect2_innerShadow"/>
<feColorMatrix in="SourceAlpha" type="matrix" values="0 0 0 0 0 0 0 0 0 0 0 0 0 0 0 0 0 0 127 0" result="hardAlpha"/>
<feOffset dy="-1"/>
<feComposite in2="hardAlpha" operator="arithmetic" k2="-1" k3="1"/>
<feColorMatrix type="matrix" values="0 0 0 0 0 0 0 0 0 0 0 0 0 0 0 0 0 0 0.25 0"/>
<feBlend mode="normal" in2="effect2_innerShadow" result="effect3_innerShadow"/>
</filter>
<linearGradient id="paint0_linear" x1="0.215158" y1="-4.64" x2="69.0951" y2="69.28" gradientUnits="userSpaceOnUse">
<stop offset="0.0104167" stop-color="#AC37D5"/>
<stop offset="0.557649" stop-color="#AC37D4" stop-opacity="0"/>
</linearGradient>
<radialGradient id="paint1_radial" cx="0" cy="0" r="1" gradientUnits="userSpaceOnUse" gradientTransform="translate(72.4551 -46.16) rotate(99.0614) scale(112.767)">
<stop stop-color="#1DFFE4"/>
<stop offset="1" stop-color="#1DFFE4" stop-opacity="0"/>
</radialGradient>
<linearGradient id="paint2_linear" x1="0.215158" y1="-4.64" x2="69.0951" y2="69.28" gradientUnits="userSpaceOnUse">
<stop offset="0.0104167" stop-color="#AC37D5"/>
<stop offset="0.557649" stop-color="#AC37D4" stop-opacity="0"/>
</linearGradient>
<radialGradient id="paint3_radial" cx="0" cy="0" r="1" gradientUnits="userSpaceOnUse" gradientTransform="translate(83.5 -32.5) rotate(118.518) scale(98.4441)">
<stop stop-color="#AF1212"/>
<stop offset="1" stop-color="#AF1212" stop-opacity="0"/>
</radialGradient>
<linearGradient id="paint4_linear" x1="-1.5" y1="68" x2="48" y2="48" gradientUnits="userSpaceOnUse">
<stop stop-color="#01E89A"/>
<stop offset="1" stop-color="#01D2D2" stop-opacity="0"/>
</linearGradient>
<linearGradient id="paint5_linear" x1="24" y1="9" x2="24" y2="47" gradientUnits="userSpaceOnUse">
<stop stop-color="#BFBFBF"/>
<stop offset="1" stop-color="white"/>
</linearGradient>
<linearGradient id="paint6_linear" x1="4.5" y1="9" x2="4.5" y2="47" gradientUnits="userSpaceOnUse">
<stop stop-color="#414141"/>
<stop offset="1" stop-color="#222222"/>
</linearGradient>
<linearGradient id="paint7_linear" x1="4.5" y1="9" x2="4.5" y2="47" gradientUnits="userSpaceOnUse">
<stop stop-color="white"/>
<stop offset="1" stop-color="#BFBFBF"/>
</linearGradient>
<linearGradient id="paint8_linear" x1="43.5" y1="9" x2="43.5" y2="47" gradientUnits="userSpaceOnUse">
<stop stop-color="#414141"/>
<stop offset="1" stop-color="#222222"/>
</linearGradient>
<linearGradient id="paint9_linear" x1="43.5" y1="9" x2="43.5" y2="47" gradientUnits="userSpaceOnUse">
<stop stop-color="white"/>
<stop offset="1" stop-color="#BFBFBF"/>
</linearGradient>
</defs>
</svg>
